HIERARCHY
ROOT root_translation_joint
{
	OFFSET	0	0	0
	CHANNELS 6 Xposition Yposition Zposition Zrotation Xrotation Yrotation
	JOINT Spine_x_joint
	{
		OFFSET	0	0	0.909008
		CHANNELS 3  Zrotation Xrotation Yrotation
		JOINT Head_x_joint
		{
			OFFSET	0	0	1.59751
			CHANNELS 3  Zrotation Xrotation Yrotation
			JOINT Headendsite_x_joint
			{
				OFFSET	0	0	0.452755
				CHANNELS 3  Zrotation Xrotation Yrotation
				End Site
				{
					OFFSET	0	0	0.0001
				}
			}
		}
		JOINT LeftShoulder_x_joint
		{
			OFFSET	0	0	1.25984
			CHANNELS 3  Zrotation Xrotation Yrotation
			JOINT LeftArm_x_joint
			{
				OFFSET	-0.7874	0	0
				CHANNELS 3  Zrotation Xrotation Yrotation
				JOINT LeftForeArm_x_joint
				{
					OFFSET	-1.29921	0	0
					CHANNELS 3  Zrotation Xrotation Yrotation
					JOINT LeftHand_x_joint
					{
						OFFSET	-1.03081	0	0
						CHANNELS 3  Zrotation Xrotation Yrotation
						JOINT LeftHandPinky1_x_joint
						{
							OFFSET	-0.281979	-0.013815	0
							CHANNELS 3  Zrotation Xrotation Yrotation
							JOINT LeftHandPinky1endsite_x_joint
							{
								OFFSET	-0.19685	0	0
								CHANNELS 3  Zrotation Xrotation Yrotation
								End Site
								{
									OFFSET	-0.0001	0	0
								}
							}
						}
						JOINT LeftHandIndex1_x_joint
						{
							OFFSET	-0.414743	0.013815	0
							CHANNELS 3  Zrotation Xrotation Yrotation
							JOINT LeftHandIndex1endsite_x_joint
							{
								OFFSET	-0.23622	0	0
								CHANNELS 3  Zrotation Xrotation Yrotation
								End Site
								{
									OFFSET	-0.0001	0	0
								}
							}
						}
					}
				}
			}
		}
		JOINT RightShoulder_x_joint
		{
			OFFSET	0	0	1.25984
			CHANNELS 3  Zrotation Xrotation Yrotation
			JOINT RightArm_x_joint
			{
				OFFSET	0.7874	0	0
				CHANNELS 3  Zrotation Xrotation Yrotation
				JOINT RightForeArm_x_joint
				{
					OFFSET	1.29921	0	0
					CHANNELS 3  Zrotation Xrotation Yrotation
					JOINT RightHand_x_joint
					{
						OFFSET	1.03081	0	0
						CHANNELS 3  Zrotation Xrotation Yrotation
						JOINT RightHandPinky1_x_joint
						{
							OFFSET	0.294832	-0.017528	0
							CHANNELS 3  Zrotation Xrotation Yrotation
							JOINT RightHandPinky1endsite_x_joint
							{
								OFFSET	0.19685	0	0
								CHANNELS 3  Zrotation Xrotation Yrotation
								End Site
								{
									OFFSET	0.0001	0	0
								}
							}
						}
						JOINT RightHandIndex1_x_joint
						{
							OFFSET	0.346188	0.017528	0
							CHANNELS 3  Zrotation Xrotation Yrotation
							JOINT RightHandIndex1endsite_x_joint
							{
								OFFSET	0.23622	0	0
								CHANNELS 3  Zrotation Xrotation Yrotation
								End Site
								{
									OFFSET	0.0001	0	0
								}
							}
						}
					}
				}
			}
		}
	}
	JOINT LeftUpLeg_x_joint
	{
		OFFSET	-0.408853	0	0
		CHANNELS 3  Zrotation Xrotation Yrotation
		JOINT LeftLeg_x_joint
		{
			OFFSET	0	0	-1.73605
			CHANNELS 3  Zrotation Xrotation Yrotation
			JOINT LeftFoot_x_joint
			{
				OFFSET	0	0	-1.61351
				CHANNELS 3  Zrotation Xrotation Yrotation
				JOINT LeftToeBase_x_joint
				{
					OFFSET	0	0.510779	-0.136863
					CHANNELS 3  Zrotation Xrotation Yrotation
					JOINT LeftToeBaseendsite_x_joint
					{
						OFFSET	0	0.177165	0
						CHANNELS 3  Zrotation Xrotation Yrotation
						End Site
						{
							OFFSET	0	0.0001	0
						}
					}
				}
			}
		}
	}
	JOINT RightUpLeg_x_joint
	{
		OFFSET	0.408853	0	0
		CHANNELS 3  Zrotation Xrotation Yrotation
		JOINT RightLeg_x_joint
		{
			OFFSET	0	0	-1.73605
			CHANNELS 3  Zrotation Xrotation Yrotation
			JOINT RightFoot_x_joint
			{
				OFFSET	0	0	-1.61351
				CHANNELS 3  Zrotation Xrotation Yrotation
				JOINT RightToeBase_x_joint
				{
					OFFSET	0	0.510779	-0.136863
					CHANNELS 3  Zrotation Xrotation Yrotation
					JOINT RightToeBaseendsite_x_joint
					{
						OFFSET	0	0.177165	0
						CHANNELS 3  Zrotation Xrotation Yrotation
						End Site
						{
							OFFSET	0	0.0001	0
						}
					}
				}
			}
		}
	}
}
MOTION
Frames:	11
Frame Time: 1
-0.907551	2.11043	-1.40979	-17.2056	-56.8388	-21.0655	-8.35079	-43.6727	-4.29288	13.8171	9.73545	-0.609065	-0	0	-0	4.72011	-17.4919	22.4686	-28.0736	-6.22524	-72.6692	-91.1421	12.9291	6.52655e-15	24.7894	21.1189	37.9595	-1.00983	-4.4638	-102.759	-0	43.6267	-0	-85.4509	0	-43.5365	-0	0	-0	-17.4746	-25.7439	-22.9315	46.3194	12.3074	52.7535	83.6203	25.0361	1.40415e-14	-9.96954	15.6593	-56.9265	14.6735	-33.8614	115.172	-0	-55.5385	-0	38.9347	0	-42.4797	-0	0	-0	5.81916	52.661	-1.18465	-180	-77.7436	-180	-1.54331	13.6251	4.5509	-1.646e-15	6.3977	5.00076e-16	-0	0	-0	-11.0263	50.2615	0.497743	-180	-81.4003	-180	-3.37101	19.7346	-2.76936	-1.90601e-17	5.47695	1.99696e-16	-0	0	-0
-0.904181	2.11198	-1.40787	-16.8413	-56.4695	-20.841	-8.19006	-43.4797	-4.10384	13.5417	10.3465	-0.53685	-0	0	-0	4.36195	-16.5422	22.0437	-27.7869	-6.90682	-73.1075	-90.953	12.7484	1.30438e-14	25.1261	21.1361	37.555	-1.08752	-4.73527	-102.944	-0	47.5138	-0	-85.2527	0	-47.4157	-0	0	-0	-17.7762	-26.6237	-22.6842	46.2998	13.1232	52.0819	83.4628	24.5803	-0	-10.2822	15.9559	-56.5783	15.3244	-34.3837	115.884	-0	-56.424	-0	38.3547	0	-43.0687	-0	0	-0	5.67703	52.2418	-0.858984	-180	-77.7981	-180	-1.74713	13.6451	4.4892	-0	6.29343	-0	-0	0	-0	-11.2105	49.7579	0.604608	180	-81.5171	-180	-3.44025	19.7112	-2.67203	6.43847e-15	5.55795	-7.98895e-16	-0	0	-0
-0.904909	2.11234	-1.40544	-16.9629	-56.3773	-20.9561	-7.74888	-42.9773	-3.74371	13.2352	11.0674	-0.534075	-0	0	-0	4.69584	-17.1824	21.7371	-27.7803	-6.129	-72.5081	-90.6786	12.5518	6.51684e-15	25.54	21.0605	36.945	-1.02015	-4.49182	-102.81	-0	44.3157	-0	-85.1713	0	-44.2139	-0	0	-0	-17.8483	-26.7664	-22.5357	46.2377	13.1624	51.9759	83.2405	24.463	-1.74712e-14	-10.4535	16.0555	-56.2923	15.6967	-34.6986	116.274	-0	-56.8314	-0	37.852	0	-43.1917	-0	0	-0	5.63778	52.2304	-0.796582	-180	-77.8365	-180	-1.8733	13.5598	4.53097	1.62402e-15	6.45712	-3.00081e-16	-0	0	-0	-11.28	49.7752	0.625456	-180	-81.5699	-180	-3.43192	19.5602	-2.48191	3.18055e-15	5.57236	-0	-0	0	-0
-0.90528	2.11231	-1.40476	-17.2742	-56.5525	-21.1819	-7.49345	-42.2133	-3.5336	13.1561	12.0786	-0.667954	-0	0	-0	4.59898	-17.0735	21.3966	-27.7728	-6.25104	-72.5148	-90.3789	12.3007	-1.62764e-14	25.7717	21.0171	36.6061	-1.03022	-4.49386	-102.928	-0	46.2353	-0	-85.1742	0	-46.1338	-0	0	-0	-17.8373	-26.7864	-22.4228	46.3016	13.0706	51.9829	82.9242	24.465	1.74715e-14	-10.6351	16.2188	-56.0867	15.8894	-34.9184	116.44	-0	-56.9327	-0	37.7761	0	-43.2545	-0	0	-0	5.74386	52.4619	-0.89184	-180	-77.8886	-180	-1.86025	13.5033	4.55371	3.21427e-15	6.45024	-3.00077e-16	-0	0	-0	-11.2349	50.0344	0.581945	-180	-81.6088	-180	-3.33251	19.5666	-2.29771	9.56115e-15	5.60557	-1.9974e-16	-0	0	-0
-0.905469	2.11156	-1.4052	-17.4161	-56.7841	-21.2476	-7.53134	-41.5674	-3.48181	13.2689	13.4068	-0.905303	-0	0	-0	4.45448	-16.6858	21.1038	-27.7347	-6.75177	-72.758	-90.1561	12.1857	-9.76164e-15	25.8645	20.9673	36.4308	-1.00994	-4.41186	-102.911	-0	45.1064	-0	-85.1627	0	-45.0042	-0	0	-0	-17.7561	-26.6289	-22.3188	46.3717	12.8595	52.2265	82.7592	24.6242	6.99744e-15	-10.5609	16.1923	-56.2346	16.1594	-35.3155	116.622	-0	-57.1103	-0	37.8291	0	-43.483	-0	0	-0	5.91152	52.6579	-1.08227	-180	-77.8863	-180	-1.86636	13.5356	4.77024	-1.57916e-15	6.3796	-1.00012e-16	-0	0	-0	-11.2358	50.282	0.562846	-180	-81.555	-180	-3.34611	19.5927	-2.27115	3.23994e-15	5.6872	-5.99302e-16	-0	0	-0
-0.906286	2.11032	-1.40927	-17.4615	-57.07	-21.1908	-7.77789	-40.9545	-3.49816	13.3732	14.5954	-1.21158	-0	0	-0	4.55465	-16.7023	20.8727	-27.841	-6.96269	-72.7209	-90.0002	12.2136	3.25421e-15	25.8386	20.8614	36.3301	-0.985772	-4.3283	-102.841	-0	44.6136	-0	-85.1478	0	-44.5109	-0	0	-0	-17.7353	-26.6907	-22.3145	46.279	12.8219	52.3614	82.6543	24.2583	-3.48859e-15	-10.8252	16.2953	-55.7264	16.0247	-35.0301	116.582	-0	-57.0262	-0	37.6787	0	-43.2941	-0	0	-0	6.08412	52.9283	-1.35651	180	-77.7717	180	-1.75852	13.5859	4.72027	1.61227e-15	6.31463	-1.99998e-16	-0	0	-0	-11.1476	50.6073	0.400221	-180	-81.3556	-180	-3.25343	19.6681	-2.48888	1.9742e-17	5.67164	-1.99763e-16	-0	0	-0
-0.905246	2.10973	-1.41616	-17.2415	-57.2662	-20.8151	-8.195	-40.5844	-3.73595	13.4634	15.5691	-1.30009	-0	0	-0	4.55649	-16.7305	20.7451	-27.8123	-7.17194	-72.6776	-90.0002	12.3469	-9.76755e-15	25.8459	20.879	36.3433	-0.964756	-4.28204	-102.711	-0	42.4961	-0	-84.961	0	-42.3856	-0	0	-0	-17.7303	-26.7832	-22.1887	46.1668	12.8664	52.513	82.7546	24.1903	-6.97343e-15	-10.858	16.2645	-55.5942	16.2833	-35.2819	116.827	-0	-57.309	-0	36.7742	0	-43.0099	-0	0	-0	6.3304	52.9706	-1.75428	180	-77.6709	180	-1.77397	13.5858	5.11646	1.60179e-15	6.60821	-1.00057e-16	-0	0	-0	-10.9936	50.7274	0.113011	180	-81.127	180	-3.38129	19.8223	-2.64827	3.20063e-15	5.76734	-1.99796e-16	-0	0	-0
-0.906969	2.10913	-1.42381	-17.1554	-57.2856	-20.5613	-8.61523	-40.5426	-3.99806	13.6086	16.4492	-1.30403	-0	0	-0	4.6332	-16.7723	20.7053	-27.8437	-7.2581	-72.6764	-90.0059	12.5594	-3.58438e-14	25.7855	20.9769	36.5391	-1.0032	-4.4075	-102.839	-0	45.0991	-0	-84.9387	0	-44.9873	-0	0	-0	-17.7054	-26.8163	-22.2838	46.1124	13.0024	52.603	82.8153	24.1962	6.97375e-15	-10.8171	16.0756	-55.3937	16.8662	-35.5783	117.523	-0	-57.8074	-0	36.2639	0	-43.2151	-0	0	-0	6.65709	52.8563	-2.16924	-180	-77.5483	-180	-1.81186	13.7822	5.23896	-1.59028e-15	6.33244	-0	-0	0	-0	-10.6739	50.7558	-0.254683	-180	-80.8777	-180	-3.50385	19.9339	-2.79553	-3.22069e-15	5.76476	3.9959e-16	-0	0	-0
-0.907702	2.10744	-1.42863	-17.0635	-57.2871	-20.3474	-8.91537	-40.6738	-4.17356	13.631	16.9789	-1.15167	-0	0	-0	4.57892	-16.8341	20.7937	-27.9708	-7.4817	-72.6648	-90.0002	12.8173	-4.56657e-14	25.6391	20.9825	36.7254	-0.921447	-4.1021	-102.671	-0	42.4209	-0	-85.0453	0	-42.3141	-0	0	-0	-17.7022	-26.8395	-22.424	46.0875	12.9967	52.6224	83.0491	24.0562	6.96613e-15	-10.8944	16.3556	-55.648	16.8867	-35.4743	117.614	-0	-57.8951	-0	36.558	0	-43.5109	-0	0	-0	6.818	52.8091	-2.47472	-180	-77.432	-180	-1.73348	13.8615	5.25265	-2.19377e-17	6.29761	1.99992e-16	-0	0	-0	-10.3999	50.7972	-0.552019	180	-80.6732	180	-3.53066	20.0001	-3.00485	-3.20033e-15	5.68062	1.99766e-16	-0	0	-0
-0.907684	2.10689	-1.42944	-17.066	-57.3297	-20.2868	-8.98844	-40.896	-4.20842	13.5373	17.1811	-0.969691	-0	0	-0	4.52657	-16.8292	20.8595	-28.1856	-7.72249	-72.51	-90.1916	13.1865	-3.26669e-15	25.3202	20.8461	36.9483	-0.832495	-3.80824	-102.343	-0	38.5592	-0	-85.0436	0	-38.4547	-0	0	-0	-17.775	-26.8616	-22.4887	46.0805	12.8821	52.5485	83.3923	24.0599	-3.48317e-15	-10.7642	16.1965	-55.7226	16.8409	-35.4734	117.547	-0	-57.8281	-0	36.5895	0	-43.4583	-0	0	-0	6.89902	52.8708	-2.56647	-180	-77.3936	-180	-1.72426	13.8547	5.19248	1.56799e-15	6.3973	2.0003e-16	-0	0	-0	-10.2653	50.8811	-0.643893	-180	-80.5924	-180	-3.6032	20.0097	-2.91036	3.2306e-15	5.75072	-4.99475e-16	-0	0	-0
-0.909658	2.10678	-1.42704	-17.2295	-57.4066	-20.3591	-9.09245	-41.1605	-4.22939	13.5008	17.1505	-0.90091	-0	0	-0	4.53484	-16.7249	20.8726	-28.3591	-7.82232	-72.4626	-90.2363	13.3553	-6.5379e-15	25.1173	20.8873	37.2534	-0.822112	-3.72961	-102.443	-0	36.7743	-0	-85.267	0	-36.6805	-0	0	-0	-17.7918	-26.882	-22.6214	45.9998	12.9407	52.5042	83.6341	23.9699	-3.48074e-15	-10.6386	16.0844	-55.8627	16.8046	-35.3177	117.582	-0	-57.8286	-0	36.5914	0	-43.4603	-0	0	-0	7.01216	52.9616	-2.77169	-180	-77.4612	-180	-1.63849	13.8577	5.11256	3.16947e-15	6.36378	1.00009e-16	-0	0	-0	-10.1782	51.037	-0.76979	-180	-80.6405	-180	-3.54348	19.9712	-2.89562	-0	5.80761	-0	-0	0	-0
